<?xml version="1.0" encoding="utf-8"?><svg xmlns="http://www.w3.org/2000/svg" xmlns:xlink="http://www.w3.org/1999/xlink" width="1920" height="855" preserveAspectRatio="xMidYMid" viewBox="0 0 1920 855" style="z-index:1;margin-right:-2px;display:block;background-repeat-y:initial;background-repeat-x:initial;background-color:rgb(241, 242, 243);animation-play-state:paused" ><g transform="translate(960,427.5) scale(1,1) translate(-960,-427.5)" style="transform:matrix(1, 0, 0, 1, 0, 0);animation-play-state:paused" ><linearGradient id="lg-0.33416384794808307" x1="0" x2="1" y1="0" y2="0" style="animation-play-state:paused" ><stop stop-color="#93dbe9" offset="0" style="animation-play-state:paused" ></stop>

  
<stop stop-color="#689cc5" offset="1" style="animation-play-state:paused" ></stop></linearGradient>
<path d="M 0 0 L 0 740.783 Q 192 697.312 384 665.863 T 768 651.958 T 1152 532.068 T 1536 455.858 T 1920 330.135 L 1920 0 Z" fill="url(#lg-0.33416384794808307)" opacity="0.4" style="opacity:0.4;animation-play-state:paused" ></path>
<path d="M 0 0 L 0 777.797 Q 192 682.342 384 648.792 T 768 604.195 T 1152 493.424 T 1536 397.856 T 1920 318.638 L 1920 0 Z" fill="url(#lg-0.33416384794808307)" opacity="0.4" style="opacity:0.4;animation-play-state:paused" ></path>
<path d="M 0 0 L 0 737.424 Q 192 761.989 384 731.187 T 768 616.964 T 1152 451.121 T 1536 401.97 T 1920 395.504 L 1920 0 Z" fill="url(#lg-0.33416384794808307)" opacity="0.4" style="opacity:0.4;animation-play-state:paused" ></path>
<path d="M 0 0 L 0 710.477 Q 192 685.308 384 654.971 T 768 578.584 T 1152 509.675 T 1536 535.039 T 1920 386.552 L 1920 0 Z" fill="url(#lg-0.33416384794808307)" opacity="0.4" style="opacity:0.4;animation-play-state:paused" ></path>
<path d="M 0 0 L 0 774.719 Q 192 718.515 384 689.289 T 768 655.375 T 1152 507.556 T 1536 482.038 T 1920 343.69 L 1920 0 Z" fill="url(#lg-0.33416384794808307)" opacity="0.4" style="opacity:0.4;animation-play-state:paused" ></path></g></svg>